<svg xmlns="http://www.w3.org/2000/svg" viewBox="0 -0.5 200 80" shape-rendering="crispEdges">
<path stroke="#a59c9c" d="M25 0h3M23 1h9M22 2h11M22 3h2M32 3h2M22 4h1M32 4h2M13 5h10M30 5h2M34 5h7M12 6h1M22 6h1M28 6h2M41 6h2M11 7h2M22 7h1M28 7h2M41 7h2M124 7h3M10 8h3M41 8h2M122 8h7M9 9h3M30 9h13M122 9h1M129 9h1M9 10h2M17 10h13M116 10h7M129 10h7M11 11h2M115 11h8M128 11h1M136 11h1M11 12h2M114 12h2M126 12h2M136 12h1M13 13h1M64 13h2M113 13h2M62 14h6M112 14h2M128 14h9M62 15h1M67 15h2M113 15h2M118 15h10M170 15h5M57 16h6M66 16h1M69 16h4M114 16h2M169 16h2M174 16h1M56 17h2M64 17h2M73 17h1M165 17h5M173 17h1M175 17h4M55 18h2M67 18h7M164 18h2M172 18h2M178 18h2M56 19h1M60 19h7M164 19h1M178 19h1M57 20h1M165 20h1M168 20h11" />
<path stroke="#ffffff" d="M93 28h18M93 29h18M91 30h4M97 30h16M91 31h4M97 31h16M91 32h22M91 33h22M91 34h22M91 35h22M91 36h22M91 37h22M91 38h22M91 39h12M43 40h4M91 40h12M43 41h4M91 41h18M42 42h7M91 42h18M133 42h3M42 43h7M71 43h3M91 43h10M133 43h3M42 44h7M71 44h3M89 44h12M131 44h7M42 45h7M71 45h3M89 45h12M131 45h7M42 46h7M71 46h3M86 46h15M131 46h7M36 47h3M42 47h7M71 47h3M86 47h19M131 47h7M36 48h3M42 48h7M71 48h5M83 48h22M131 48h7M34 49h5M42 49h7M71 49h5M83 49h18M103 49h2M126 49h3M131 49h7M34 50h5M42 50h7M71 50h6M81 50h20M103 50h2M126 50h3M131 50h7M34 51h5M42 51h7M71 51h6M81 51h20M124 51h5M131 51h7M34 52h5M42 52h7M53 52h4M71 52h30M124 52h5M131 52h7M34 53h5M42 53h7M53 53h4M71 53h30M124 53h5M131 53h7M142 53h4M34 54h5M42 54h7M51 54h6M71 54h30M124 54h5M131 54h7M142 54h4M34 55h5M42 55h7M51 55h6M73 55h28M124 55h5M131 55h7M140 55h6M34 56h5M42 56h7M51 56h6M73 56h26M124 56h5M131 56h7M140 56h6M34 57h5M42 57h7M51 57h6M75 57h24M124 57h5M131 57h7M140 57h6M34 58h5M42 58h7M51 58h6M75 58h24M124 58h5M131 58h7M140 58h6M34 59h5M42 59h7M51 59h6M77 59h22M124 59h5M131 59h7M140 59h6M35 60h14M51 60h6M77 60h20M124 60h5M131 60h7M140 60h6M35 61h14M51 61h6M79 61h18M125 61h13M140 61h6M37 62h12M51 62h6M79 62h16M125 62h13M140 62h6M37 63h12M51 63h6M70 63h6M81 63h6M91 63h4M127 63h11M140 63h6M42 64h15M81 64h6M91 64h4M98 64h15M127 64h19M36 65h19M81 65h4M93 65h2M131 65h15M42 66h13M81 66h4M93 66h2M131 66h13M42 67h7M59 67h9M81 67h2M93 67h2M131 67h13M148 67h14M25 68h7M42 68h7M75 68h4M81 68h2M93 68h2M131 68h7M42 69h7M81 69h4M93 69h4M131 69h7M0 70h11M42 70h7M81 70h4M93 70h4M130 70h10M167 70h6M42 71h7M71 71h3M131 71h7M42 72h13M78 72h2M131 72h7M187 72h12M19 73h9M42 73h7M131 73h7M39 74h10M91 74h7M119 74h2M131 74h7M144 74h7M42 75h7M68 75h8M131 75h7M171 75h8M42 76h7M100 76h7M131 76h7M155 76h4M32 77h33M122 77h8M131 77h7M42 78h7M4 79h20M133 79h21" />
<path stroke="#cccdcd" d="M155 40h3M154 41h5M154 42h5M154 43h5M150 44h2M154 44h5M150 45h2M154 45h5M148 46h4M154 46h5M26 47h2M148 47h4M154 47h5M25 48h4M148 48h4M154 48h5M162 48h3M25 49h4M148 49h4M154 49h5M162 49h3M25 50h4M148 50h4M154 50h5M161 50h4M21 51h2M25 51h4M148 51h4M154 51h5M161 51h4M20 52h3M25 52h4M148 52h4M154 52h5M161 52h4M20 53h3M25 53h4M148 53h4M154 53h5M161 53h4M20 54h3M25 54h4M31 54h2M149 54h10M161 54h4M20 55h3M25 55h4M30 55h3M149 55h10M161 55h4M20 56h3M25 56h4M30 56h3M151 56h14M20 57h3M25 57h4M30 57h3M154 57h11M20 58h3M25 58h4M30 58h3M154 58h10M21 59h8M30 59h3M154 59h5M22 60h11M154 60h5M25 61h8M154 61h5M25 62h7M154 62h5M25 63h4M154 63h5M25 64h4M154 64h5M25 65h4M154 65h5M25 66h4M154 66h5M25 67h4M25 69h4" />
<path stroke="#4a4d50" d="M159 62h9M29 65h4M55 72h3M138 72h11" />
</svg>